<svg width="32" height="32" viewBox="0 0 32 32" fill="none" xmlns="http://www.w3.org/2000/svg">
<path fill-rule="evenodd" clip-rule="evenodd" d="M16.3314 4.66943C13.1786 4.66943 12.7839 4.68259 11.5457 4.73908C10.3098 4.79558 9.46551 4.99214 8.72723 5.27926C7.95334 5.57024 7.25143 6.02683 6.67101 6.61808C6.08071 7.19782 5.62384 7.89924 5.33219 8.67352C5.04663 9.4118 4.84929 10.2569 4.79279 11.4928C4.73707 12.7302 4.72314 13.1241 4.72314 16.2777C4.72314 19.4313 4.7363 19.8252 4.79279 21.0634C4.84929 22.2993 5.04585 23.1436 5.33297 23.8819C5.62395 24.6558 6.08054 25.3577 6.67179 25.9381C7.25155 26.5284 7.95296 26.9853 8.72723 27.2769C9.46551 27.5633 10.3098 27.7599 11.5457 27.8163C12.7839 27.8728 13.1786 27.886 16.3314 27.886C19.4842 27.886 19.8789 27.8728 21.1171 27.8163C22.353 27.7599 23.1973 27.5633 23.9356 27.2762C24.7095 26.9852 25.4114 26.5286 25.9918 25.9374C26.5821 25.3576 27.039 24.6562 27.3307 23.8819C27.617 23.1436 27.8136 22.2993 27.8701 21.0634C27.9266 19.8252 27.9397 19.4305 27.9397 16.2777C27.9397 13.1249 27.9266 12.7302 27.8701 11.492C27.8136 10.2561 27.617 9.4118 27.3299 8.67352C27.0385 7.89891 26.5816 7.19719 25.9911 6.6173C25.4113 6.027 24.7099 5.57013 23.9356 5.27848C23.1973 4.99292 22.3523 4.79558 21.1164 4.73908C19.8789 4.68336 19.485 4.66943 16.3314 4.66943ZM16.3314 6.76125C19.4308 6.76125 19.7984 6.77285 21.0227 6.82857C22.1541 6.88042 22.7686 7.06848 23.178 7.22867C23.7197 7.4384 24.1067 7.69068 24.5129 8.0962C24.9192 8.50249 25.1707 8.88943 25.3805 9.43115C25.5399 9.84054 25.7287 10.455 25.7806 11.5864C25.8363 12.8107 25.8479 13.1783 25.8479 16.2777C25.8479 19.3771 25.8363 19.7447 25.7806 20.969C25.7287 22.1004 25.5407 22.7149 25.3805 23.1243C25.1947 23.6285 24.8982 24.0847 24.5129 24.4592C24.1384 24.8446 23.6823 25.1411 23.178 25.3268C22.7686 25.4862 22.1541 25.675 21.0227 25.7269C19.7984 25.7826 19.4316 25.7942 16.3314 25.7942C13.2312 25.7942 12.8644 25.7826 11.6401 25.7269C10.5087 25.675 9.89425 25.487 9.48486 25.3268C8.98064 25.141 8.52447 24.8445 8.14991 24.4592C7.76465 24.0846 7.46822 23.6285 7.28238 23.1243C7.12296 22.7149 6.93414 22.1004 6.88229 20.969C6.82657 19.7447 6.81496 19.3771 6.81496 16.2777C6.81496 13.1783 6.82657 12.8107 6.88229 11.5864C6.93414 10.455 7.12219 9.84054 7.28238 9.43115C7.49211 8.88943 7.74439 8.50249 8.14991 8.0962C8.52442 7.71084 8.98061 7.41439 9.48486 7.22867C9.89425 7.06925 10.5087 6.88042 11.6401 6.82857C12.8644 6.77285 13.232 6.76125 16.3314 6.76125V6.76125Z" fill="white"/>
<path fill-rule="evenodd" clip-rule="evenodd" d="M16.3314 20.1509C15.8228 20.1509 15.3191 20.0508 14.8492 19.8561C14.3792 19.6615 13.9522 19.3761 13.5926 19.0165C13.2329 18.6568 12.9476 18.2298 12.7529 17.7599C12.5583 17.29 12.4581 16.7863 12.4581 16.2776C12.4581 15.769 12.5583 15.2653 12.7529 14.7954C12.9476 14.3255 13.2329 13.8985 13.5926 13.5388C13.9522 13.1791 14.3792 12.8938 14.8492 12.6992C15.3191 12.5045 15.8228 12.4043 16.3314 12.4043C17.3587 12.4043 18.3439 12.8124 19.0702 13.5388C19.7966 14.2652 20.2047 15.2504 20.2047 16.2776C20.2047 17.3049 19.7966 18.2901 19.0702 19.0165C18.3439 19.7429 17.3587 20.1509 16.3314 20.1509V20.1509ZM16.3314 10.311C14.7489 10.311 13.2313 10.9396 12.1123 12.0586C10.9934 13.1775 10.3647 14.6952 10.3647 16.2776C10.3647 17.8601 10.9934 19.3777 12.1123 20.4967C13.2313 21.6157 14.7489 22.2443 16.3314 22.2443C17.9139 22.2443 19.4315 21.6157 20.5505 20.4967C21.6694 19.3777 22.2981 17.8601 22.2981 16.2776C22.2981 14.6952 21.6694 13.1775 20.5505 12.0586C19.4315 10.9396 17.9139 10.311 16.3314 10.311V10.311ZM24.0339 10.2026C24.0339 10.5767 23.8853 10.9354 23.6208 11.2C23.3563 11.4645 22.9975 11.613 22.6235 11.613C22.2494 11.613 21.8907 11.4645 21.6262 11.2C21.3617 10.9354 21.2131 10.5767 21.2131 10.2026C21.2131 9.82858 21.3617 9.46984 21.6262 9.20533C21.8907 8.94083 22.2494 8.79224 22.6235 8.79224C22.9975 8.79224 23.3563 8.94083 23.6208 9.20533C23.8853 9.46984 24.0339 9.82858 24.0339 10.2026" fill="white"/>
</svg>
