<svg width="35" height="24" viewBox="0 0 35 24" fill="none" xmlns="http://www.w3.org/2000/svg">
<rect x="0.5" y="0.5" width="34" height="23" rx="3.5" fill="white" stroke="#D9D9D9"/>
<path d="M20.0948 12.127C20.0948 15.9394 17.0397 19.03 13.271 19.03C9.50237 19.03 6.44727 15.9394 6.44727 12.127C6.44727 8.31457 9.50237 5.224 13.271 5.224C17.0397 5.224 20.0948 8.31457 20.0948 12.127Z" fill="#ED0006"/>
<path d="M28.9473 12.127C28.9473 15.9394 25.8922 19.03 22.1236 19.03C18.3549 19.03 15.2998 15.9394 15.2998 12.127C15.2998 8.31457 18.3549 5.224 22.1236 5.224C25.8922 5.224 28.9473 8.31457 28.9473 12.127Z" fill="#0099DF"/>
<path fill-rule="evenodd" clip-rule="evenodd" d="M17.6973 6.87305C19.1645 8.13918 20.0948 10.0232 20.0948 12.127C20.0948 14.2308 19.1645 16.1148 17.6973 17.3809C16.2301 16.1148 15.2998 14.2308 15.2998 12.127C15.2998 10.0232 16.2301 8.13918 17.6973 6.87305Z" fill="#6C6BBD"/>
</svg>
