<svg width="32" height="32" viewBox="0 0 32 32" fill="none" xmlns="http://www.w3.org/2000/svg">
<path d="M16.1794 3.37964C9.04859 3.37964 3.28662 9.1522 3.28662 16.2724C3.28662 21.7373 6.68225 26.4063 11.4786 28.2845C11.3619 27.2658 11.2664 25.6953 11.521 24.5811C11.7545 23.573 13.0278 18.1719 13.0278 18.1719C13.0278 18.1719 12.6458 17.3972 12.6458 16.2618C12.6458 14.4685 13.6857 13.1315 14.9803 13.1315C16.0839 13.1315 16.6145 13.9591 16.6145 14.946C16.6145 16.0496 15.9141 17.705 15.5427 19.2436C15.235 20.5276 16.19 21.5781 17.4528 21.5781C19.7448 21.5781 21.5063 19.1587 21.5063 15.6782C21.5063 12.5903 19.2885 10.4362 16.1157 10.4362C12.4442 10.4362 10.2901 13.1845 10.2901 16.0284C10.2901 17.1319 10.7146 18.3204 11.2451 18.9677C11.3513 19.095 11.3619 19.2118 11.33 19.3391C11.2345 19.7423 11.0117 20.6231 10.9692 20.8035C10.9162 21.0369 10.7782 21.09 10.5342 20.9733C8.94246 20.2092 7.945 17.8535 7.945 15.9647C7.945 11.9006 10.8949 8.16535 16.4659 8.16535C20.9333 8.16535 24.4138 11.3487 24.4138 15.6145C24.4138 20.0607 21.6124 23.6367 17.7287 23.6367C16.4235 23.6367 15.1925 22.9576 14.7787 22.1511C14.7787 22.1511 14.1314 24.6129 13.9723 25.2178C13.6857 26.3426 12.9005 27.7433 12.3699 28.6028C13.5796 28.9742 14.853 29.1758 16.19 29.1758C23.3102 29.1758 29.0828 23.4033 29.0828 16.283C29.0722 9.1522 23.2996 3.37964 16.1794 3.37964Z" fill="white"/>
</svg>
