<svg width="35" height="24" viewBox="0 0 35 24" fill="none" xmlns="http://www.w3.org/2000/svg">
<rect x="0.5" y="0.5" width="34" height="23" rx="3.5" fill="white" stroke="#D9D9D9"/>
<path d="M10.8277 5.00159H16.3435C17.1135 5.00159 17.5924 5.62917 17.4127 6.40167L14.8448 17.427C14.6635 18.1969 13.8926 18.825 13.1221 18.825H7.6069C6.83802 18.825 6.35806 18.1969 6.53768 17.427L9.10674 6.40167C9.28636 5.62917 10.0568 5.00159 10.8277 5.00159Z" fill="#E21836"/>
<path d="M15.884 5H22.227C22.9969 5 22.6497 5.62758 22.4686 6.40009L19.901 17.4255C19.7209 18.1953 19.7771 18.8234 19.0057 18.8234H12.6627C11.8912 18.8234 11.4138 18.1953 11.595 17.4255L14.1625 6.40009C14.3448 5.62758 15.1137 5 15.884 5Z" fill="#00447C"/>
<path d="M21.9756 5H27.4914C28.2624 5 28.7413 5.62758 28.5602 6.40009L25.9926 17.4255C25.8114 18.1953 25.0399 18.8234 24.269 18.8234H18.7558C17.9844 18.8234 17.5059 18.1953 17.6866 17.4255L20.2546 6.40009C20.4342 5.62758 21.2041 5 21.9756 5Z" fill="#007B84"/>
<path d="M12.2678 8.53338C11.7006 8.53916 11.5331 8.53338 11.4796 8.52075C11.459 8.61849 11.0762 10.3841 11.0752 10.3856C10.9927 10.7428 10.9328 10.9974 10.7291 11.1619C10.6135 11.2575 10.4785 11.3036 10.322 11.3036C10.0705 11.3036 9.92392 11.1787 9.89932 10.9418L9.89461 10.8604C9.89461 10.8604 9.97125 10.382 9.97125 10.3793C9.97125 10.3793 10.373 8.77027 10.4449 8.55758C10.4487 8.54548 10.4497 8.53916 10.4507 8.53338C9.66875 8.54024 9.53014 8.53338 9.5206 8.52075C9.51535 8.53809 9.49599 8.63784 9.49599 8.63784L9.08581 10.4513L9.05058 10.6051L8.98242 11.1082C8.98242 11.2575 9.01173 11.3793 9.07008 11.4822C9.25695 11.8088 9.79002 11.8577 10.0916 11.8577C10.4801 11.8577 10.8446 11.7752 11.0909 11.6245C11.5184 11.3719 11.6303 10.977 11.73 10.6261L11.7763 10.4461C11.7763 10.4461 12.1901 8.77498 12.2604 8.55758C12.2631 8.54548 12.2642 8.53916 12.2678 8.53338ZM13.6758 9.88149C13.576 9.88149 13.3937 9.90569 13.23 9.98595C13.1705 10.0165 13.1143 10.0517 13.0551 10.0868L13.1086 9.89359L13.0793 9.86106C12.732 9.93137 12.6543 9.94078 12.3335 9.98595L12.3066 10.0038C12.2694 10.3126 12.2363 10.5448 12.0982 11.1518C12.0457 11.3756 11.9911 11.6014 11.9364 11.8246L11.9511 11.853C12.2799 11.8356 12.3796 11.8356 12.6653 11.8403L12.6884 11.8152C12.7247 11.6292 12.7294 11.5857 12.8098 11.2091C12.8476 11.0306 12.9264 10.6383 12.9652 10.4986C13.0366 10.4655 13.1071 10.433 13.1743 10.433C13.3344 10.433 13.3149 10.5727 13.3087 10.6283C13.3019 10.7218 13.2435 11.0269 13.1837 11.289L13.1438 11.4581C13.116 11.583 13.0854 11.7044 13.0576 11.8282L13.0697 11.853C13.3937 11.8356 13.4925 11.8356 13.7692 11.8403L13.8017 11.8152C13.8518 11.5248 13.8664 11.4471 13.9551 11.0243L13.9998 10.83C14.0865 10.4498 14.1301 10.257 14.0644 10.1C13.9951 9.92398 13.8286 9.88149 13.6758 9.88149ZM15.2486 10.2796C15.0764 10.3126 14.9666 10.3347 14.8574 10.3489C14.7492 10.3663 14.6437 10.382 14.4772 10.4051L14.464 10.4171L14.4519 10.4266C14.4346 10.5506 14.4225 10.6578 14.3995 10.7837C14.38 10.914 14.35 11.062 14.3012 11.2747C14.2634 11.4375 14.244 11.4943 14.2224 11.5515C14.2015 11.6088 14.1783 11.6645 14.1359 11.8246L14.1458 11.8394L14.1541 11.8529C14.3097 11.8456 14.4115 11.8403 14.5161 11.8394C14.6205 11.8356 14.7288 11.8394 14.8963 11.8403L14.9109 11.8283L14.9267 11.8152C14.9509 11.6708 14.9545 11.6319 14.9693 11.5615C14.9839 11.4859 15.0092 11.3813 15.0712 11.1019C15.1005 10.9707 15.1332 10.8399 15.1635 10.706C15.1951 10.5726 15.2282 10.4413 15.2597 10.3101L15.255 10.2942L15.2486 10.2796ZM15.2523 9.74284C15.0958 9.65048 14.8212 9.67979 14.6363 9.80737C14.452 9.93241 14.431 10.1099 14.587 10.2034C14.7408 10.2932 15.0165 10.2665 15.1997 10.1378C15.3837 10.0101 15.4067 9.83426 15.2523 9.74284ZM16.1987 11.8819C16.5153 11.8819 16.8399 11.7946 17.0842 11.5357C17.2721 11.3257 17.3583 11.0133 17.3881 10.8846C17.4853 10.4581 17.4096 10.259 17.3146 10.1378C17.1702 9.95291 16.915 9.89362 16.6503 9.89362C16.4911 9.89362 16.112 9.90935 15.8158 10.1824C15.6031 10.3794 15.5049 10.6466 15.4456 10.9029C15.3857 11.164 15.3169 11.634 15.7491 11.8089C15.8825 11.8662 16.0748 11.8819 16.1987 11.8819ZM16.174 10.9224C16.247 10.5994 16.3332 10.3284 16.5531 10.3284C16.7255 10.3284 16.738 10.5301 16.6613 10.8541C16.6476 10.926 16.5847 11.1934 16.4996 11.3073C16.4402 11.3913 16.3699 11.4423 16.2922 11.4423C16.269 11.4423 16.1315 11.4423 16.1293 11.238C16.1283 11.1372 16.1488 11.0342 16.174 10.9224ZM18.1796 11.8404L18.2043 11.8152C18.2394 11.6293 18.2452 11.5856 18.3229 11.2092C18.3618 11.0306 18.4422 10.6383 18.4799 10.4986C18.5515 10.4654 18.6207 10.4329 18.6901 10.4329C18.8491 10.4329 18.8298 10.5726 18.8234 10.6282C18.8177 10.7218 18.7593 11.0268 18.6984 11.2889L18.6606 11.458C18.6317 11.583 18.6003 11.7043 18.5724 11.8283L18.5845 11.853C18.9096 11.8357 19.0047 11.8357 19.283 11.8404L19.3166 11.8152C19.3654 11.5247 19.3786 11.447 19.47 11.0243L19.5135 10.8299C19.6007 10.4497 19.6448 10.257 19.5802 10.1C19.5088 9.92402 19.3413 9.88153 19.1906 9.88153C19.0907 9.88153 18.9075 9.9056 18.7447 9.98599C18.6864 10.0165 18.6281 10.0516 18.5708 10.0868L18.6207 9.89363L18.594 9.86096C18.2468 9.93141 18.1675 9.94082 17.8471 9.98599L17.8225 10.0039C17.7837 10.3127 17.7521 10.5447 17.614 11.1519C17.5614 11.3756 17.5068 11.6015 17.4523 11.8246L17.4669 11.853C17.7962 11.8357 17.8944 11.8357 18.1796 11.8404ZM20.568 11.8529C20.5885 11.7532 20.7099 11.1619 20.711 11.1619C20.711 11.1619 20.8143 10.7281 20.8207 10.7123C20.8207 10.7123 20.8532 10.6671 20.8857 10.6493H20.9336C21.3852 10.6493 21.8951 10.6493 22.2948 10.3552C22.5668 10.1536 22.7527 9.85579 22.8357 9.49387C22.8572 9.40514 22.8731 9.2996 22.8731 9.19406C22.8731 9.05545 22.8452 8.91832 22.7648 8.81117C22.561 8.52602 22.1551 8.52077 21.6866 8.51862C21.6851 8.51862 21.4556 8.52077 21.4556 8.52077C20.8559 8.52817 20.6154 8.52602 20.5165 8.51392C20.5082 8.55761 20.4925 8.63532 20.4925 8.63532C20.4925 8.63532 20.2776 9.631 20.2776 9.63261C20.2776 9.63261 19.7635 11.7495 19.7393 11.8493C20.263 11.843 20.4777 11.843 20.568 11.8529ZM20.9661 10.0842C20.9661 10.0842 21.1945 9.09054 21.1935 9.0943L21.2009 9.04335L21.2041 9.0045L21.2954 9.01391C21.2954 9.01391 21.7665 9.05437 21.7775 9.05545C21.9634 9.12738 22.0401 9.31277 21.9865 9.55477C21.9377 9.77593 21.7943 9.96186 21.61 10.0517C21.4582 10.1278 21.2722 10.1341 21.0807 10.1341H20.9567L20.9661 10.0842ZM22.3883 10.9408C22.3279 11.1981 22.2586 11.6681 22.6887 11.8356C22.8258 11.894 22.9487 11.9113 23.0736 11.905C23.2055 11.8979 23.3277 11.8317 23.4409 11.7365C23.4306 11.7757 23.4204 11.8148 23.4102 11.854L23.4297 11.8792C23.7391 11.8661 23.835 11.8661 24.1702 11.8687L24.2006 11.8456C24.2495 11.5579 24.2956 11.2785 24.4228 10.7281C24.4848 10.4644 24.5467 10.2034 24.6102 9.94079L24.6003 9.91189C24.2542 9.97602 24.1617 9.98973 23.8289 10.0369L23.8036 10.0575C23.8002 10.0842 23.7967 10.1099 23.7935 10.1356C23.7417 10.052 23.6667 9.98059 23.551 9.93609C23.4029 9.87788 23.0553 9.95289 22.7564 10.225C22.5464 10.4193 22.4456 10.6855 22.3883 10.9408ZM23.1151 10.9565C23.1892 10.6394 23.2743 10.371 23.4948 10.371C23.6342 10.371 23.7076 10.4997 23.6927 10.7191C23.6808 10.7738 23.6681 10.8315 23.6529 10.8967C23.6308 10.9909 23.6069 11.0844 23.5836 11.1779C23.56 11.2419 23.5324 11.3023 23.5022 11.3425C23.4454 11.4229 23.3105 11.4728 23.2327 11.4728C23.2107 11.4728 23.0746 11.4728 23.0699 11.2722C23.0689 11.1723 23.0894 11.0694 23.1151 10.9565ZM26.9105 9.90932L26.8837 9.8788C26.5413 9.94818 26.4793 9.9592 26.1647 10.0017L26.1416 10.0248C26.1405 10.0286 26.1396 10.0344 26.138 10.0396L26.1369 10.0344C25.9027 10.5747 25.9096 10.4581 25.7189 10.8835C25.7178 10.8641 25.7178 10.852 25.7168 10.8315L25.669 9.90932L25.6391 9.8788C25.2804 9.94818 25.2719 9.9592 24.9406 10.0017L24.9148 10.0248C24.9112 10.0358 24.9112 10.0479 24.909 10.0611L24.9112 10.0658C24.9526 10.2774 24.9427 10.2302 24.9842 10.5642C25.0036 10.7281 25.0294 10.8929 25.0487 11.0548C25.0814 11.3257 25.0997 11.459 25.1396 11.8725C24.9159 12.2416 24.8629 12.3813 24.6476 12.7053L24.649 12.7086L24.4974 12.9484C24.48 12.9737 24.4643 12.991 24.4423 12.9984C24.4181 13.0104 24.3866 13.0125 24.3429 13.0125H24.2589L24.134 13.428L24.5624 13.4353C24.814 13.4343 24.9721 13.3166 25.0572 13.1585L25.3266 12.6969H25.3223L25.3507 12.6643C25.5319 12.2742 26.9105 9.90932 26.9105 9.90932ZM22.3883 15.3653H22.2065L22.8793 13.1402H23.1025L23.1733 12.911L23.1802 13.1659C23.1718 13.3234 23.2958 13.4631 23.6214 13.44H23.998L24.1276 13.0115H23.9859C23.9044 13.0115 23.8666 12.9909 23.8713 12.9469L23.8645 12.6875H23.1671V12.6889C22.9417 12.6936 22.2684 12.7105 22.1321 12.7468C21.9671 12.7893 21.7933 12.9143 21.7933 12.9143L21.8616 12.6848H21.2092L21.0733 13.1402L20.3916 15.3994H20.2593L20.1295 15.8247H21.4288L21.3852 15.9666H22.0254L22.0679 15.8247H22.2475L22.3883 15.3653ZM21.8552 13.5923C21.7508 13.6212 21.5564 13.7089 21.5564 13.7089L21.7293 13.1402H22.2475L22.1225 13.5545C22.1225 13.5545 21.9624 13.5639 21.8552 13.5923ZM21.8652 14.4047C21.8652 14.4047 21.7024 14.4252 21.5952 14.4494C21.4897 14.4814 21.2918 14.5822 21.2918 14.5822L21.4703 13.9904H21.9913L21.8652 14.4047ZM21.5748 15.3706H21.0549L21.2056 14.8711H21.7239L21.5748 15.3706ZM22.8268 13.9904H23.5762L23.4685 14.3391H22.7092L22.5952 14.7204H23.2596L22.7565 15.4288C22.7213 15.4808 22.6897 15.4992 22.6546 15.5139C22.6194 15.5318 22.5731 15.5527 22.5196 15.5527H22.3353L22.2086 15.9703H22.6907C22.9413 15.9703 23.0894 15.8563 23.1987 15.7067L23.5436 15.2345L23.6177 15.7139C23.6335 15.8038 23.698 15.8563 23.7417 15.8768C23.7899 15.901 23.8398 15.9425 23.9103 15.9487C23.9858 15.9519 24.0404 15.9545 24.0767 15.9545H24.3136L24.4558 15.4871H24.3624C24.3088 15.4871 24.2164 15.4781 24.2007 15.4613C24.1849 15.4409 24.1849 15.4094 24.1765 15.3616L24.1013 14.8811H23.7936L23.9286 14.7204H24.6864L24.803 14.3391H24.1013L24.2106 13.9904H24.9101L25.0399 13.5603H22.9544L22.8268 13.9904ZM16.4975 15.4677L16.6724 14.8858H17.3913L17.5226 14.4531H16.8031L16.9129 14.0949H17.616L17.7463 13.6758H15.987L15.8594 14.0949H16.2591L16.1525 14.4531H15.7517L15.6189 14.8932H16.0185L15.7853 15.663C15.7539 15.7649 15.8001 15.8038 15.8294 15.8511C15.8594 15.8972 15.8898 15.9278 15.9581 15.9451C16.0285 15.9608 16.0768 15.9702 16.1424 15.9702H16.9528L17.0972 15.4908L16.738 15.5402C16.6686 15.5402 16.4765 15.5318 16.4975 15.4677ZM16.5799 12.6822L16.3978 13.0114C16.3588 13.0834 16.3237 13.128 16.2921 13.1486C16.2643 13.1659 16.2091 13.1732 16.1293 13.1732H16.0342L15.9072 13.5944H16.2229C16.3746 13.5944 16.4912 13.5387 16.5469 13.5109C16.6067 13.4789 16.6224 13.4972 16.6687 13.4526L16.7753 13.3602H17.761L17.8918 12.9216H17.1703L17.2962 12.6822H16.5799ZM18.0352 15.4761C18.0184 15.4519 18.0305 15.4093 18.0562 15.3206L18.3256 14.4288H19.284C19.4237 14.4268 19.5246 14.4252 19.5902 14.4205C19.6606 14.4131 19.7372 14.388 19.8207 14.3428C19.9069 14.2955 19.951 14.2456 19.9882 14.1883C20.0298 14.1312 20.0965 14.0061 20.1537 13.8134L20.4924 12.6848L19.4978 12.6906C19.4978 12.6906 19.1915 12.7358 19.0567 12.7857C18.9206 12.8413 18.7262 12.9968 18.7262 12.9968L18.816 12.6874H18.2016L17.3415 15.5401C17.311 15.6509 17.2905 15.7313 17.2858 15.7796C17.2842 15.8316 17.3514 15.8831 17.395 15.922C17.4465 15.9608 17.5226 15.9545 17.5956 15.9608C17.6723 15.9666 17.7815 15.9702 17.9322 15.9702H18.4044L18.5493 15.4808L18.1266 15.5208C18.0814 15.5208 18.0488 15.4966 18.0352 15.4761ZM18.4994 13.8265H19.5061L19.4421 14.0271C19.4331 14.0318 19.4116 14.0172 19.3092 14.0293H18.4374L18.4994 13.8265ZM18.7011 13.1538H19.7163L19.6433 13.3954C19.6433 13.3954 19.1648 13.3907 19.0881 13.4048C18.751 13.4631 18.554 13.6433 18.554 13.6433L18.7011 13.1538ZM19.4647 14.6988C19.4563 14.7288 19.4432 14.7471 19.4247 14.7608C19.4043 14.774 19.3712 14.7787 19.3219 14.7787H19.1784L19.1869 14.5344H18.5903L18.5661 15.7287C18.5651 15.8148 18.5734 15.8647 18.6365 15.9047C18.6996 15.9545 18.8938 15.9609 19.1553 15.9609H19.5292L19.6642 15.5138L19.3387 15.5317L19.2305 15.538C19.2157 15.5317 19.2016 15.5259 19.1858 15.5102C19.1721 15.4966 19.149 15.505 19.1528 15.4188L19.1553 15.1127L19.4967 15.0985C19.681 15.0985 19.7598 15.0386 19.827 14.9814C19.8911 14.9267 19.9121 14.8638 19.9363 14.7787L19.9936 14.5077H19.5245L19.4647 14.6988Z" fill="#FEFEFE"/>
</svg>
