<svg width="32" height="32" viewBox="0 0 32 32" fill="none" xmlns="http://www.w3.org/2000/svg">
<path fill-rule="evenodd" clip-rule="evenodd" d="M26.089 7.78394C27.1983 8.08196 28.0758 8.95951 28.3739 10.0688C28.9202 12.0888 28.9368 16.2778 28.9368 16.2778C28.9368 16.2778 28.9368 20.4833 28.3904 22.4868C28.0924 23.5961 27.2149 24.4736 26.1055 24.7717C24.1021 25.3181 16.0387 25.3181 16.0387 25.3181C16.0387 25.3181 7.97534 25.3181 5.97191 24.7717C4.86258 24.4736 3.98505 23.5961 3.68701 22.4868C3.14062 20.4668 3.14062 16.2778 3.14062 16.2778C3.14062 16.2778 3.14062 12.0888 3.67046 10.0854C3.96849 8.97606 4.84602 8.09853 5.95536 7.8005C7.95878 7.2541 16.0222 7.23755 16.0222 7.23755C16.0222 7.23755 24.0855 7.23755 26.089 7.78394ZM20.1449 16.2778L13.4558 20.1522V12.4034L20.1449 16.2778Z" fill="white"/>
</svg>
